# xmcd
#
# Track frame offsets:
# 150
# 7549
# 13696
# 20802
# 28361
# 39186
# 47984
# 53136
# 58001
# 66946
# 74327
# 89019
# 97939
# 105170
# 112847
# 119610
#
# Disc length: 1667 seconds
#
# Revision: 0
# Processed by: cddbd v1.4PL0 Copyright (c) Steve Scherf et al.
# Submitted via: Audion 2.6.0 (http://www.panic.com/audion/)
#
DISCID=ce068110
DTITLE=blackboots - keras kepala
DYEAR=1900
DGENRE=
TTITLE0=stop massacre
TTITLE1=usa besar kepala
TTITLE2=fucker
TTITLE3=polisi-polisi
TTITLE4=yang fasis
TTITLE5=anarchy and liberty
TTITLE6=setara
TTITLE7=wake up
TTITLE8=reaksioner modhar
TTITLE9=take care the war
TTITLE10=destroy
TTITLE11=pogo anjing
TTITLE12=break on community
TTITLE13=anarchy
TTITLE14=keras kepala
TTITLE15=take care the war
EXTD=
EXTT0=
EXTT1=
EXTT2=
EXTT3=
EXTT4=
EXTT5=
EXTT6=
EXTT7=
EXTT8=
EXTT9=
EXTT10=
EXTT11=
EXTT12=
EXTT13=
EXTT14=
EXTT15=
PLAYORDER=
